<svg xmlns="http://www.w3.org/2000/svg" width="360" height="256" viewBox="0 0 360 256" role="img">
<title>Top Languages</title>
<rect width="360" height="256" rx="8" fill="#111111"/>
<text x="24" y="34" fill="#ffffff" font-family="Segoe UI, Ubuntu, Sans-Serif" font-size="16" font-weight="600">Top Languages</text>
<rect x="24" y="52" width="312" height="10" rx="5" fill="#222222"/>
<rect x="24.00" y="52" width="246.96" height="10" fill="#3178c6"/>
<rect x="270.96" y="52" width="28.41" height="10" fill="#F05138"/>
<rect x="299.37" y="52" width="19.72" height="10" fill="#f1e05a"/>
<rect x="319.09" y="52" width="5.86" height="10" fill="#3572A5"/>
<rect x="324.95" y="52" width="5.78" height="10" fill="#00ADD8"/>
<rect x="330.73" y="52" width="5.27" height="10" fill="#b07219"/>
<circle cx="30" cy="84" r="5" fill="#3178c6"/>
<text x="44" y="88" fill="#c9c9c9" font-family="Segoe UI, Ubuntu, Sans-Serif" font-size="13">TypeScript</text>
<text x="336" y="88" fill="#ffffff" font-family="Segoe UI, Ubuntu, Sans-Serif" font-size="13" font-weight="600" text-anchor="end">79.2%</text>
<circle cx="30" cy="110" r="5" fill="#F05138"/>
<text x="44" y="114" fill="#c9c9c9" font-family="Segoe UI, Ubuntu, Sans-Serif" font-size="13">Swift</text>
<text x="336" y="114" fill="#ffffff" font-family="Segoe UI, Ubuntu, Sans-Serif" font-size="13" font-weight="600" text-anchor="end">9.1%</text>
<circle cx="30" cy="136" r="5" fill="#f1e05a"/>
<text x="44" y="140" fill="#c9c9c9" font-family="Segoe UI, Ubuntu, Sans-Serif" font-size="13">JavaScript</text>
<text x="336" y="140" fill="#ffffff" font-family="Segoe UI, Ubuntu, Sans-Serif" font-size="13" font-weight="600" text-anchor="end">6.3%</text>
<circle cx="30" cy="162" r="5" fill="#3572A5"/>
<text x="44" y="166" fill="#c9c9c9" font-family="Segoe UI, Ubuntu, Sans-Serif" font-size="13">Python</text>
<text x="336" y="166" fill="#ffffff" font-family="Segoe UI, Ubuntu, Sans-Serif" font-size="13" font-weight="600" text-anchor="end">1.9%</text>
<circle cx="30" cy="188" r="5" fill="#00ADD8"/>
<text x="44" y="192" fill="#c9c9c9" font-family="Segoe UI, Ubuntu, Sans-Serif" font-size="13">Go</text>
<text x="336" y="192" fill="#ffffff" font-family="Segoe UI, Ubuntu, Sans-Serif" font-size="13" font-weight="600" text-anchor="end">1.9%</text>
<circle cx="30" cy="214" r="5" fill="#b07219"/>
<text x="44" y="218" fill="#c9c9c9" font-family="Segoe UI, Ubuntu, Sans-Serif" font-size="13">Java</text>
<text x="336" y="218" fill="#ffffff" font-family="Segoe UI, Ubuntu, Sans-Serif" font-size="13" font-weight="600" text-anchor="end">1.7%</text>
</svg>
